# xmcd
#
# Track frame offsets: 
#        150
#        17253
#        25521
#        48008
#        81147
#        100938
#        124799
#        141788
#        145273
#        166650
#
# Disc length: 2437 seconds
#
# Revision: 0
# Processed by: cddbd v1.5.2PL0 Copyright (c) Steve Scherf et al.
# Submitted via: ExactAudioCopy v0.99pb5
#
DISCID=6c09830a
DTITLE=Sugaray - Blind Alley
DYEAR=1900
DGENRE=Blues
TTITLE0=Nuthin' I Wouldn't Do (For A Woman Like You)
TTITLE1=Dark Was the Night, Cold Was the Ground
TTITLE2=Death Letter
TTITLE3=Blind Alley
TTITLE4=You Upset Me Baby
TTITLE5=I Let Love Slip Thru My Fingers
TTITLE6=You Can't Win For Losing
TTITLE7=I've Got to Move
TTITLE8=I Sing the Blues
TTITLE9=Overnight Sensation
EXTD=
EXTT0=
EXTT1=
EXTT2=
EXTT3=
EXTT4=
EXTT5=
EXTT6=
EXTT7=
EXTT8=
EXTT9=
PLAYORDER=
